<?xml version="1.0" encoding="utf-8"?>
<!DOCTYPE svg PUBLIC "-//W3C//DTD SVG 1.1//EN" "http://www.w3.org/Graphics/SVG/1.1/DTD/svg11.dtd">
<svg version="1.1" id="IANA_Header_Logo" xmlns="http://www.w3.org/2000/svg" xmlns:xlink="http://www.w3.org/1999/xlink" x="0px"
	 y="0px" width="234px" height="72px" viewBox="0 0 468 144" enable-background="new 0 0 468 144" xml:space="preserve">
<g id="Text_Paths">
	<path fill="#5A5A58" d="M5.129,136.483v-18.872h2.744v18.872H5.129z"/>
	<path fill="#5A5A58" d="M21.929,136.483v-10.332c0-0.709-0.178-1.27-0.532-1.68c-0.355-0.411-0.99-0.616-1.904-0.616
		c-0.71,0-1.354,0.098-1.932,0.294c-0.579,0.196-1.148,0.48-1.708,0.854v11.48h-2.492v-14.504c0.336-0.056,0.742-0.098,1.218-0.126
		s0.9-0.042,1.274-0.042v1.428h0.14c0.728-0.634,1.437-1.068,2.128-1.302c0.69-0.233,1.418-0.351,2.184-0.351
		c0.56,0,1.087,0.075,1.582,0.225c0.494,0.149,0.933,0.396,1.316,0.742c0.382,0.346,0.686,0.803,0.91,1.372
		c0.224,0.569,0.336,1.273,0.336,2.113v10.444H21.929z"/>
	<path fill="#5A5A58" d="M37.189,136.176c-0.374,0.187-0.822,0.331-1.344,0.434s-0.98,0.154-1.372,0.154
		c-1.512,0-2.6-0.383-3.262-1.148c-0.663-0.765-0.994-1.96-0.994-3.584v-7.979h-1.736v-2.185h1.736v-3.136
		c0.336-0.093,0.747-0.182,1.232-0.266s0.915-0.145,1.288-0.183v3.584h3.696c0,0.729-0.056,1.456-0.168,2.185h-3.528v8.176
		c0,0.878,0.149,1.461,0.448,1.75c0.298,0.289,0.802,0.434,1.512,0.434c0.336,0,0.705-0.042,1.106-0.126s0.742-0.191,1.022-0.321
		c0.093,0.317,0.168,0.672,0.224,1.063S37.151,135.802,37.189,136.176z"/>
	<path fill="#5A5A58" d="M50.993,127.523c0,0.317-0.005,0.663-0.014,1.036c-0.01,0.373-0.033,0.728-0.07,1.063h-8.568v0.225
		c0,0.766,0.065,1.433,0.196,2.002s0.35,1.041,0.658,1.414s0.718,0.653,1.232,0.84c0.513,0.187,1.162,0.28,1.946,0.28
		c0.672,0,1.358-0.089,2.058-0.267c0.7-0.177,1.265-0.396,1.694-0.658c0.13,0.336,0.252,0.719,0.364,1.148s0.196,0.831,0.252,1.204
		c-0.28,0.149-0.602,0.285-0.966,0.406c-0.364,0.121-0.742,0.224-1.134,0.308c-0.392,0.084-0.789,0.145-1.19,0.182
		s-0.779,0.057-1.134,0.057c-2.203,0-3.869-0.606-4.998-1.82c-1.13-1.213-1.694-3.07-1.694-5.572c0-1.344,0.154-2.506,0.462-3.485
		c0.308-0.98,0.728-1.787,1.26-2.422c0.532-0.635,1.162-1.106,1.89-1.414c0.728-0.309,1.521-0.463,2.38-0.463
		c1.792,0,3.136,0.519,4.032,1.555S50.993,125.639,50.993,127.523z M45.561,123.548c-0.971,0-1.736,0.336-2.296,1.008
		s-0.858,1.782-0.896,3.332h6.104c0.019-0.112,0.028-0.262,0.028-0.448c0-0.205,0-0.354,0-0.448c0-1.213-0.252-2.09-0.756-2.632
		C47.241,123.818,46.513,123.548,45.561,123.548z"/>
	<path fill="#5A5A58" d="M62.64,121.728c0,0.43-0.023,0.868-0.07,1.315c-0.047,0.448-0.107,0.888-0.182,1.316
		c-0.149-0.037-0.336-0.074-0.56-0.112c-0.224-0.037-0.458-0.056-0.7-0.056c-0.504,0-1.013,0.084-1.526,0.252
		c-0.514,0.168-1.088,0.56-1.722,1.176v10.864h-2.492v-14.504c0.336-0.056,0.742-0.098,1.218-0.126s0.9-0.042,1.274-0.042v1.848
		h0.14c0.392-0.485,0.756-0.863,1.092-1.134s0.644-0.476,0.924-0.616c0.28-0.14,0.542-0.229,0.784-0.266
		c0.242-0.037,0.476-0.057,0.7-0.057c0.149,0,0.331,0.01,0.546,0.028C62.281,121.634,62.472,121.672,62.64,121.728z"/>
	<path fill="#5A5A58" d="M74.708,136.483v-10.332c0-0.709-0.178-1.27-0.532-1.68c-0.355-0.411-0.99-0.616-1.904-0.616
		c-0.71,0-1.354,0.098-1.932,0.294c-0.579,0.196-1.148,0.48-1.708,0.854v11.48H66.14v-14.504c0.336-0.056,0.742-0.098,1.218-0.126
		s0.9-0.042,1.274-0.042v1.428h0.14c0.728-0.634,1.437-1.068,2.128-1.302c0.69-0.233,1.418-0.351,2.184-0.351
		c0.56,0,1.087,0.075,1.582,0.225c0.494,0.149,0.933,0.396,1.316,0.742c0.382,0.346,0.686,0.803,0.91,1.372
		c0.224,0.569,0.336,1.273,0.336,2.113v10.444H74.708z"/>
	<path fill="#5A5A58" d="M92.852,127.523c0,0.317-0.005,0.663-0.014,1.036c-0.01,0.373-0.033,0.728-0.07,1.063H84.2v0.225
		c0,0.766,0.065,1.433,0.196,2.002s0.35,1.041,0.658,1.414s0.718,0.653,1.232,0.84c0.513,0.187,1.162,0.28,1.946,0.28
		c0.672,0,1.358-0.089,2.058-0.267c0.7-0.177,1.265-0.396,1.694-0.658c0.13,0.336,0.252,0.719,0.364,1.148s0.196,0.831,0.252,1.204
		c-0.28,0.149-0.602,0.285-0.966,0.406c-0.364,0.121-0.742,0.224-1.134,0.308c-0.392,0.084-0.789,0.145-1.19,0.182
		s-0.779,0.057-1.134,0.057c-2.203,0-3.869-0.606-4.998-1.82c-1.13-1.213-1.694-3.07-1.694-5.572c0-1.344,0.154-2.506,0.462-3.485
		c0.308-0.98,0.728-1.787,1.26-2.422c0.532-0.635,1.162-1.106,1.89-1.414c0.728-0.309,1.521-0.463,2.38-0.463
		c1.792,0,3.136,0.519,4.032,1.555S92.852,125.639,92.852,127.523z M87.42,123.548c-0.971,0-1.736,0.336-2.296,1.008
		s-0.858,1.782-0.896,3.332h6.104c0.019-0.112,0.028-0.262,0.028-0.448c0-0.205,0-0.354,0-0.448c0-1.213-0.252-2.09-0.756-2.632
		C89.1,123.818,88.372,123.548,87.42,123.548z"/>
	<path fill="#5A5A58" d="M104.695,136.176c-0.374,0.187-0.822,0.331-1.344,0.434s-0.98,0.154-1.372,0.154
		c-1.512,0-2.6-0.383-3.262-1.148c-0.663-0.765-0.994-1.96-0.994-3.584v-7.979h-1.736v-2.185h1.736v-3.136
		c0.336-0.093,0.747-0.182,1.232-0.266s0.915-0.145,1.288-0.183v3.584h3.696c0,0.729-0.056,1.456-0.168,2.185h-3.528v8.176
		c0,0.878,0.149,1.461,0.448,1.75c0.298,0.289,0.802,0.434,1.512,0.434c0.336,0,0.705-0.042,1.106-0.126s0.742-0.191,1.022-0.321
		c0.093,0.317,0.168,0.672,0.224,1.063S104.658,135.802,104.695,136.176z"/>
	<path fill="#5A5A58" d="M126.843,136.315c-0.411,0.094-0.845,0.164-1.302,0.21c-0.458,0.046-0.91,0.079-1.358,0.098l-1.876-5.739
		h-6.468l-1.82,5.739c-0.392-0.019-0.808-0.052-1.246-0.098s-0.845-0.116-1.218-0.21c0.896-3.042,1.866-6.122,2.912-9.24
		c1.045-3.117,2.146-6.271,3.304-9.464h2.912c1.064,3.08,2.118,6.212,3.164,9.395C124.892,130.188,125.891,133.291,126.843,136.315z
		 M119.423,121.615c-0.075-0.205-0.126-0.415-0.154-0.63c-0.028-0.214-0.052-0.452-0.07-0.714h-0.196
		c0,0.504-0.065,0.952-0.196,1.344l-2.268,7.028h5.096L119.423,121.615z"/>
	<path fill="#5A5A58" d="M138.379,132.424c0,0.746-0.145,1.396-0.434,1.945c-0.29,0.551-0.682,1.004-1.176,1.358
		c-0.495,0.354-1.069,0.616-1.722,0.784c-0.654,0.168-1.344,0.252-2.072,0.252c-0.71,0-1.452-0.075-2.226-0.225
		c-0.775-0.148-1.452-0.382-2.03-0.699c0.093-0.411,0.187-0.799,0.28-1.162c0.093-0.364,0.214-0.732,0.364-1.106
		c0.579,0.299,1.236,0.522,1.974,0.672c0.737,0.149,1.451,0.225,2.142,0.225c0.821,0,1.404-0.168,1.75-0.504
		c0.345-0.337,0.518-0.803,0.518-1.4c0-0.485-0.168-0.877-0.504-1.176c-0.336-0.299-0.756-0.564-1.26-0.798
		s-1.046-0.458-1.624-0.673c-0.579-0.214-1.12-0.479-1.624-0.798c-0.504-0.317-0.924-0.718-1.26-1.204
		c-0.336-0.484-0.504-1.101-0.504-1.848c0-0.746,0.145-1.4,0.434-1.96c0.289-0.56,0.686-1.026,1.19-1.4
		c0.504-0.373,1.087-0.652,1.75-0.84c0.663-0.187,1.367-0.28,2.114-0.28c0.466,0,1.017,0.033,1.652,0.099
		c0.634,0.065,1.222,0.173,1.764,0.322c-0.019,0.354-0.061,0.737-0.126,1.147c-0.066,0.411-0.145,0.803-0.238,1.176
		c-0.522-0.168-1.125-0.298-1.806-0.392c-0.682-0.093-1.321-0.14-1.918-0.14c-1.493,0-2.24,0.653-2.24,1.96
		c0,0.43,0.168,0.774,0.504,1.035c0.336,0.262,0.756,0.505,1.26,0.729c0.504,0.224,1.054,0.448,1.652,0.672
		c0.597,0.224,1.148,0.514,1.652,0.868s0.924,0.798,1.26,1.33S138.379,131.603,138.379,132.424z"/>
	<path fill="#5A5A58" d="M151.035,132.424c0,0.746-0.145,1.396-0.434,1.945c-0.29,0.551-0.682,1.004-1.176,1.358
		c-0.495,0.354-1.069,0.616-1.722,0.784c-0.654,0.168-1.344,0.252-2.072,0.252c-0.71,0-1.452-0.075-2.226-0.225
		c-0.775-0.148-1.452-0.382-2.03-0.699c0.093-0.411,0.187-0.799,0.28-1.162c0.093-0.364,0.214-0.732,0.364-1.106
		c0.579,0.299,1.236,0.522,1.974,0.672c0.737,0.149,1.451,0.225,2.142,0.225c0.821,0,1.404-0.168,1.75-0.504
		c0.345-0.337,0.518-0.803,0.518-1.4c0-0.485-0.168-0.877-0.504-1.176c-0.336-0.299-0.756-0.564-1.26-0.798
		s-1.046-0.458-1.624-0.673c-0.579-0.214-1.12-0.479-1.624-0.798c-0.504-0.317-0.924-0.718-1.26-1.204
		c-0.336-0.484-0.504-1.101-0.504-1.848c0-0.746,0.145-1.4,0.434-1.96c0.289-0.56,0.686-1.026,1.19-1.4
		c0.504-0.373,1.087-0.652,1.75-0.84c0.663-0.187,1.367-0.28,2.114-0.28c0.466,0,1.017,0.033,1.652,0.099
		c0.634,0.065,1.222,0.173,1.764,0.322c-0.019,0.354-0.061,0.737-0.126,1.147c-0.066,0.411-0.145,0.803-0.238,1.176
		c-0.522-0.168-1.125-0.298-1.806-0.392c-0.682-0.093-1.321-0.14-1.918-0.14c-1.493,0-2.24,0.653-2.24,1.96
		c0,0.43,0.168,0.774,0.504,1.035c0.336,0.262,0.756,0.505,1.26,0.729c0.504,0.224,1.054,0.448,1.652,0.672
		c0.597,0.224,1.148,0.514,1.652,0.868s0.924,0.798,1.26,1.33S151.035,131.603,151.035,132.424z"/>
	<path fill="#5A5A58" d="M157.979,117.835c0,0.43-0.122,0.794-0.364,1.093s-0.616,0.447-1.12,0.447c-0.486,0-0.85-0.153-1.092-0.462
		c-0.243-0.308-0.364-0.667-0.364-1.078c0-0.429,0.121-0.802,0.364-1.119c0.242-0.317,0.616-0.477,1.12-0.477
		c0.485,0,0.849,0.159,1.092,0.477S157.979,117.406,157.979,117.835z M155.263,136.483v-14.616h2.492v14.616H155.263z"/>
	<path fill="#5A5A58" d="M174.359,137.436c0,1.512-0.532,2.739-1.596,3.682s-2.669,1.414-4.816,1.414
		c-1.083,0-1.993-0.107-2.73-0.322c-0.738-0.215-1.33-0.514-1.778-0.896c-0.448-0.383-0.77-0.836-0.966-1.358
		c-0.196-0.522-0.294-1.082-0.294-1.68s0.112-1.13,0.336-1.596c0.224-0.467,0.579-0.952,1.064-1.456
		c-0.187-0.299-0.35-0.616-0.49-0.952c-0.14-0.336-0.248-0.672-0.322-1.008c0.056-0.225,0.135-0.477,0.238-0.756
		c0.102-0.28,0.224-0.574,0.364-0.883c0.14-0.308,0.294-0.602,0.462-0.882c0.168-0.279,0.336-0.532,0.504-0.756
		c-0.542-0.373-0.957-0.863-1.246-1.47c-0.29-0.606-0.434-1.293-0.434-2.059c0-0.728,0.116-1.39,0.35-1.987
		c0.233-0.598,0.564-1.11,0.994-1.54c0.429-0.43,0.961-0.761,1.596-0.994c0.634-0.233,1.344-0.351,2.128-0.351
		c0.373,0,0.765,0.028,1.176,0.085c0.41,0.056,0.784,0.121,1.12,0.195h4.228c0,0.299-0.014,0.607-0.042,0.924
		c-0.028,0.318-0.08,0.626-0.154,0.925l-1.932,0.14l-0.028,0.112c0.261,0.317,0.457,0.677,0.588,1.077
		c0.13,0.402,0.196,0.846,0.196,1.33c0,0.803-0.126,1.494-0.378,2.072c-0.252,0.579-0.602,1.06-1.05,1.442
		c-0.448,0.383-0.971,0.667-1.568,0.854c-0.598,0.188-1.232,0.28-1.904,0.28c-0.374,0-0.737-0.028-1.092-0.084
		c-0.355-0.056-0.663-0.121-0.924-0.196c-0.317,0.411-0.537,0.789-0.658,1.134c-0.122,0.346-0.182,0.612-0.182,0.799
		c0,0.598,0.28,0.896,0.84,0.896h4.368c0.616,0,1.171,0.065,1.666,0.196s0.915,0.346,1.26,0.644c0.345,0.299,0.616,0.696,0.812,1.19
		C174.261,136.097,174.359,136.707,174.359,137.436z M171.951,137.659c0-0.728-0.136-1.204-0.406-1.428
		c-0.271-0.224-0.714-0.336-1.33-0.336h-5.124c-0.262,0.262-0.434,0.569-0.518,0.924s-0.126,0.672-0.126,0.952
		c0,0.989,0.271,1.68,0.812,2.072c0.541,0.392,1.474,0.588,2.8,0.588c1.232,0,2.188-0.21,2.87-0.63
		C171.61,139.382,171.951,138.667,171.951,137.659z M170.522,126.291c0-1.063-0.243-1.81-0.728-2.239
		c-0.486-0.43-1.158-0.645-2.016-0.645c-1.792,0-2.688,0.962-2.688,2.884c0,1.009,0.233,1.736,0.7,2.185
		c0.466,0.448,1.129,0.672,1.988,0.672c0.858,0,1.53-0.215,2.016-0.645C170.28,128.074,170.522,127.337,170.522,126.291z"/>
	<path fill="#5A5A58" d="M186.818,136.483v-10.332c0-0.709-0.178-1.27-0.532-1.68c-0.355-0.411-0.99-0.616-1.904-0.616
		c-0.71,0-1.354,0.098-1.932,0.294c-0.579,0.196-1.148,0.48-1.708,0.854v11.48h-2.492v-14.504c0.336-0.056,0.742-0.098,1.218-0.126
		s0.9-0.042,1.274-0.042v1.428h0.14c0.728-0.634,1.437-1.068,2.128-1.302c0.69-0.233,1.418-0.351,2.184-0.351
		c0.56,0,1.087,0.075,1.582,0.225c0.494,0.149,0.933,0.396,1.316,0.742c0.382,0.346,0.686,0.803,0.91,1.372
		c0.224,0.569,0.336,1.273,0.336,2.113v10.444H186.818z"/>
	<path fill="#5A5A58" d="M204.962,127.523c0,0.317-0.005,0.663-0.014,1.036c-0.01,0.373-0.033,0.728-0.07,1.063h-8.568v0.225
		c0,0.766,0.065,1.433,0.196,2.002s0.35,1.041,0.658,1.414s0.718,0.653,1.232,0.84c0.513,0.187,1.162,0.28,1.946,0.28
		c0.672,0,1.358-0.089,2.058-0.267c0.7-0.177,1.265-0.396,1.694-0.658c0.13,0.336,0.252,0.719,0.364,1.148s0.196,0.831,0.252,1.204
		c-0.28,0.149-0.602,0.285-0.966,0.406c-0.364,0.121-0.742,0.224-1.134,0.308c-0.392,0.084-0.789,0.145-1.19,0.182
		s-0.779,0.057-1.134,0.057c-2.203,0-3.869-0.606-4.998-1.82c-1.13-1.213-1.694-3.07-1.694-5.572c0-1.344,0.154-2.506,0.462-3.485
		c0.308-0.98,0.728-1.787,1.26-2.422c0.532-0.635,1.162-1.106,1.89-1.414c0.728-0.309,1.521-0.463,2.38-0.463
		c1.792,0,3.136,0.519,4.032,1.555S204.962,125.639,204.962,127.523z M199.53,123.548c-0.971,0-1.736,0.336-2.296,1.008
		s-0.858,1.782-0.896,3.332h6.104c0.019-0.112,0.028-0.262,0.028-0.448c0-0.205,0-0.354,0-0.448c0-1.213-0.252-2.09-0.756-2.632
		C201.21,123.818,200.482,123.548,199.53,123.548z"/>
	<path fill="#5A5A58" d="M217.562,136.483v-1.232h-0.14c-0.616,0.561-1.241,0.952-1.876,1.177c-0.635,0.224-1.334,0.336-2.1,0.336
		c-0.784,0-1.489-0.141-2.114-0.42c-0.625-0.28-1.162-0.71-1.61-1.288c-0.448-0.579-0.794-1.316-1.036-2.212
		c-0.243-0.896-0.364-1.97-0.364-3.221c0-1.437,0.154-2.664,0.462-3.682s0.742-1.848,1.302-2.492
		c0.56-0.644,1.232-1.115,2.016-1.414c0.784-0.298,1.661-0.448,2.632-0.448c0.467,0,0.947,0.047,1.442,0.141
		c0.494,0.094,0.956,0.215,1.386,0.364v-6.244c0.336-0.057,0.747-0.103,1.232-0.141c0.485-0.037,0.915-0.056,1.288-0.056v20.832
		H217.562z M217.562,124.415c-0.354-0.205-0.789-0.358-1.302-0.462c-0.514-0.103-0.985-0.153-1.414-0.153
		c-0.616,0-1.162,0.089-1.638,0.266c-0.476,0.178-0.877,0.476-1.204,0.896c-0.327,0.421-0.574,0.985-0.742,1.694
		c-0.168,0.71-0.252,1.596-0.252,2.66c0,1.026,0.07,1.872,0.21,2.534c0.14,0.663,0.34,1.189,0.602,1.582
		c0.261,0.392,0.597,0.667,1.008,0.826c0.41,0.158,0.877,0.237,1.4,0.237c0.597,0,1.167-0.074,1.708-0.224s1.083-0.401,1.624-0.756
		V124.415z"/>
	<path fill="#5A5A58" d="M243.783,136.554c-0.477,0.046-0.9,0.069-1.273,0.069l-7.785-13.243c-0.055-0.112-0.131-0.253-0.223-0.421
		c-0.094-0.168-0.184-0.35-0.268-0.546c-0.084-0.195-0.162-0.392-0.236-0.588c-0.076-0.195-0.141-0.368-0.197-0.518l-0.195,0.027
		c0.037,0.374,0.07,0.752,0.098,1.135s0.043,0.714,0.043,0.994v13.02h-2.465v-18.676c0.411-0.094,0.887-0.158,1.428-0.196
		c0.541-0.037,1.008-0.056,1.4-0.056l7.447,12.684c0.168,0.28,0.336,0.611,0.504,0.994s0.309,0.732,0.42,1.05l0.197-0.027
		c-0.037-0.28-0.07-0.635-0.098-1.064c-0.029-0.429-0.043-0.793-0.043-1.092v-12.488h2.465v18.788
		C244.666,136.455,244.26,136.507,243.783,136.554z"/>
	<path fill="#5A5A58" d="M258.89,136.483v-1.26h-0.141c-0.69,0.541-1.376,0.934-2.058,1.176s-1.414,0.364-2.198,0.364
		c-0.56,0-1.087-0.075-1.582-0.225c-0.494-0.148-0.929-0.392-1.302-0.728c-0.374-0.336-0.672-0.788-0.896-1.358
		c-0.225-0.569-0.337-1.273-0.337-2.113v-10.389c0.354-0.037,0.766-0.074,1.232-0.111c0.467-0.038,0.896-0.057,1.288-0.057v10.36
		c0,0.728,0.182,1.302,0.546,1.722s1.013,0.63,1.946,0.63c0.69,0,1.315-0.088,1.876-0.266c0.56-0.178,1.101-0.425,1.624-0.742
		v-11.536c0.354-0.037,0.765-0.074,1.231-0.111c0.467-0.038,0.896-0.057,1.288-0.057v14.7H258.89z"/>
	<path fill="#5A5A58" d="M282.857,136.483v-10.332c0-0.69-0.173-1.246-0.519-1.666s-0.947-0.63-1.806-0.63
		c-0.654,0-1.228,0.103-1.723,0.308c-0.494,0.206-0.984,0.504-1.47,0.896v11.424h-2.52v-10.332c0-0.709-0.173-1.27-0.519-1.68
		c-0.346-0.411-0.938-0.616-1.777-0.616c-0.579,0-1.13,0.098-1.652,0.294s-1.036,0.48-1.54,0.854v11.48h-2.492v-14.504
		c0.336-0.056,0.742-0.098,1.218-0.126c0.477-0.028,0.9-0.042,1.274-0.042v1.428h0.14c0.672-0.597,1.298-1.021,1.876-1.273
		c0.579-0.252,1.241-0.379,1.988-0.379c0.746,0,1.419,0.15,2.016,0.448c0.598,0.299,1.055,0.803,1.372,1.513
		c0.784-0.729,1.521-1.237,2.212-1.526s1.447-0.435,2.269-0.435c0.578,0,1.12,0.075,1.624,0.225s0.947,0.396,1.33,0.742
		c0.382,0.346,0.681,0.803,0.896,1.372s0.322,1.265,0.322,2.086v10.472H282.857z"/>
	<path fill="#5A5A58" d="M302.429,128.672c0,2.706-0.573,4.731-1.722,6.075c-1.147,1.345-2.758,2.017-4.83,2.017
		c-1.008,0-1.941-0.126-2.8-0.378s-1.662-0.648-2.408-1.19v-19.348c0.336-0.057,0.742-0.103,1.218-0.141
		c0.477-0.037,0.9-0.056,1.274-0.056v7.476h0.14c0.653-0.578,1.283-0.979,1.891-1.203c0.606-0.225,1.283-0.337,2.029-0.337
		c0.747,0,1.438,0.127,2.072,0.379s1.186,0.657,1.652,1.218c0.466,0.56,0.83,1.293,1.092,2.198
		C302.298,126.287,302.429,127.384,302.429,128.672z M299.741,128.951c0-1.008-0.07-1.838-0.21-2.492
		c-0.14-0.652-0.351-1.171-0.63-1.554c-0.28-0.382-0.621-0.653-1.022-0.812c-0.401-0.159-0.863-0.238-1.386-0.238
		c-1.214,0-2.324,0.392-3.332,1.176v8.82c0.373,0.262,0.788,0.443,1.246,0.546c0.457,0.103,0.919,0.154,1.386,0.154
		c0.653,0,1.223-0.094,1.708-0.28s0.896-0.494,1.232-0.924s0.588-1.004,0.756-1.723
		C299.657,130.907,299.741,130.016,299.741,128.951z"/>
	<path fill="#5A5A58" d="M317.157,127.523c0,0.317-0.005,0.663-0.014,1.036c-0.01,0.373-0.033,0.728-0.07,1.063h-8.567v0.225
		c0,0.766,0.064,1.433,0.195,2.002s0.351,1.041,0.658,1.414s0.719,0.653,1.232,0.84c0.513,0.187,1.161,0.28,1.945,0.28
		c0.672,0,1.358-0.089,2.059-0.267c0.699-0.177,1.264-0.396,1.693-0.658c0.131,0.336,0.252,0.719,0.364,1.148
		s0.196,0.831,0.252,1.204c-0.28,0.149-0.602,0.285-0.966,0.406s-0.742,0.224-1.134,0.308c-0.393,0.084-0.789,0.145-1.19,0.182
		s-0.779,0.057-1.134,0.057c-2.203,0-3.869-0.606-4.998-1.82c-1.13-1.213-1.694-3.07-1.694-5.572c0-1.344,0.154-2.506,0.462-3.485
		c0.309-0.98,0.729-1.787,1.261-2.422c0.531-0.635,1.162-1.106,1.89-1.414c0.728-0.309,1.521-0.463,2.38-0.463
		c1.792,0,3.136,0.519,4.032,1.555C316.709,124.178,317.157,125.639,317.157,127.523z M311.726,123.548
		c-0.971,0-1.736,0.336-2.296,1.008c-0.561,0.672-0.859,1.782-0.896,3.332h6.104c0.018-0.112,0.027-0.262,0.027-0.448
		c0-0.205,0-0.354,0-0.448c0-1.213-0.252-2.09-0.756-2.632C313.405,123.818,312.678,123.548,311.726,123.548z"/>
	<path fill="#5A5A58" d="M328.805,121.728c0,0.43-0.023,0.868-0.069,1.315c-0.047,0.448-0.108,0.888-0.183,1.316
		c-0.149-0.037-0.336-0.074-0.56-0.112c-0.225-0.037-0.458-0.056-0.7-0.056c-0.504,0-1.013,0.084-1.526,0.252
		s-1.087,0.56-1.722,1.176v10.864h-2.492v-14.504c0.336-0.056,0.742-0.098,1.218-0.126c0.477-0.028,0.9-0.042,1.274-0.042v1.848
		h0.14c0.393-0.485,0.756-0.863,1.093-1.134c0.336-0.271,0.644-0.476,0.924-0.616c0.279-0.14,0.541-0.229,0.784-0.266
		c0.242-0.037,0.476-0.057,0.699-0.057c0.149,0,0.331,0.01,0.546,0.028S328.637,121.672,328.805,121.728z"/>
	<path fill="#5A5A58" d="M340.731,132.424c0,0.746-0.145,1.396-0.434,1.945c-0.29,0.551-0.682,1.004-1.176,1.358
		c-0.495,0.354-1.069,0.616-1.723,0.784s-1.344,0.252-2.071,0.252c-0.71,0-1.452-0.075-2.227-0.225
		c-0.774-0.148-1.451-0.382-2.029-0.699c0.093-0.411,0.186-0.799,0.279-1.162c0.094-0.364,0.215-0.732,0.364-1.106
		c0.578,0.299,1.236,0.522,1.974,0.672s1.451,0.225,2.143,0.225c0.821,0,1.404-0.168,1.75-0.504c0.345-0.337,0.518-0.803,0.518-1.4
		c0-0.485-0.168-0.877-0.504-1.176s-0.756-0.564-1.26-0.798s-1.046-0.458-1.624-0.673c-0.579-0.214-1.12-0.479-1.624-0.798
		c-0.504-0.317-0.924-0.718-1.26-1.204c-0.336-0.484-0.504-1.101-0.504-1.848c0-0.746,0.145-1.4,0.434-1.96s0.687-1.026,1.19-1.4
		c0.504-0.373,1.087-0.652,1.75-0.84c0.662-0.187,1.367-0.28,2.113-0.28c0.467,0,1.018,0.033,1.652,0.099s1.223,0.173,1.764,0.322
		c-0.019,0.354-0.061,0.737-0.126,1.147c-0.065,0.411-0.145,0.803-0.237,1.176c-0.523-0.168-1.125-0.298-1.807-0.392
		c-0.682-0.093-1.32-0.14-1.918-0.14c-1.493,0-2.24,0.653-2.24,1.96c0,0.43,0.169,0.774,0.505,1.035
		c0.336,0.262,0.756,0.505,1.26,0.729s1.055,0.448,1.651,0.672c0.598,0.224,1.148,0.514,1.652,0.868s0.924,0.798,1.26,1.33
		S340.731,131.603,340.731,132.424z"/>
	<path fill="#5A5A58" d="M363.636,136.315c-0.41,0.094-0.845,0.164-1.302,0.21c-0.458,0.046-0.91,0.079-1.358,0.098l-1.876-5.739
		h-6.468l-1.819,5.739c-0.393-0.019-0.808-0.052-1.246-0.098c-0.439-0.046-0.845-0.116-1.219-0.21
		c0.896-3.042,1.867-6.122,2.912-9.24c1.046-3.117,2.146-6.271,3.305-9.464h2.911c1.064,3.08,2.119,6.212,3.164,9.395
		C361.686,130.188,362.684,133.291,363.636,136.315z M356.216,121.615c-0.074-0.205-0.126-0.415-0.153-0.63
		c-0.028-0.214-0.052-0.452-0.07-0.714h-0.196c0,0.504-0.065,0.952-0.196,1.344l-2.268,7.028h5.096L356.216,121.615z"/>
	<path fill="#5A5A58" d="M375.144,136.483v-1.26h-0.141c-0.69,0.541-1.376,0.934-2.058,1.176s-1.414,0.364-2.198,0.364
		c-0.56,0-1.087-0.075-1.582-0.225c-0.494-0.148-0.929-0.392-1.302-0.728c-0.374-0.336-0.672-0.788-0.896-1.358
		c-0.225-0.569-0.337-1.273-0.337-2.113v-10.389c0.354-0.037,0.766-0.074,1.232-0.111c0.467-0.038,0.896-0.057,1.288-0.057v10.36
		c0,0.728,0.182,1.302,0.546,1.722s1.013,0.63,1.946,0.63c0.69,0,1.315-0.088,1.876-0.266c0.56-0.178,1.101-0.425,1.624-0.742
		v-11.536c0.354-0.037,0.765-0.074,1.231-0.111c0.467-0.038,0.896-0.057,1.288-0.057v14.7H375.144z"/>
	<path fill="#5A5A58" d="M390.544,136.176c-0.374,0.187-0.821,0.331-1.344,0.434c-0.523,0.103-0.98,0.154-1.372,0.154
		c-1.513,0-2.6-0.383-3.263-1.148c-0.662-0.765-0.993-1.96-0.993-3.584v-7.979h-1.736v-2.185h1.736v-3.136
		c0.336-0.093,0.746-0.182,1.231-0.266s0.914-0.145,1.288-0.183v3.584h3.696c0,0.729-0.057,1.456-0.168,2.185h-3.528v8.176
		c0,0.878,0.149,1.461,0.448,1.75c0.298,0.289,0.802,0.434,1.512,0.434c0.336,0,0.704-0.042,1.106-0.126
		c0.4-0.084,0.741-0.191,1.021-0.321c0.094,0.317,0.168,0.672,0.225,1.063C390.46,135.419,390.506,135.802,390.544,136.176z"/>
	<path fill="#5A5A58" d="M402.584,136.483v-10.332c0-0.709-0.173-1.27-0.519-1.68c-0.346-0.411-0.984-0.616-1.918-0.616
		c-0.69,0-1.325,0.098-1.903,0.294c-0.579,0.196-1.158,0.48-1.736,0.854v11.48h-2.492v-20.636c0.336-0.057,0.742-0.103,1.218-0.141
		c0.477-0.037,0.9-0.056,1.274-0.056v7.588h0.14c0.71-0.597,1.404-1.021,2.086-1.273s1.424-0.379,2.227-0.379
		c0.597,0,1.147,0.08,1.651,0.238c0.505,0.159,0.938,0.416,1.303,0.771c0.363,0.354,0.653,0.812,0.868,1.372
		c0.214,0.56,0.321,1.241,0.321,2.044v10.472H402.584z"/>
	<path fill="#5A5A58" d="M421.932,129.176c0,1.27-0.164,2.38-0.49,3.332c-0.326,0.951-0.774,1.74-1.344,2.365
		c-0.569,0.626-1.241,1.097-2.016,1.414c-0.775,0.317-1.61,0.477-2.506,0.477c-0.935,0-1.783-0.146-2.549-0.435
		s-1.419-0.742-1.96-1.357c-0.541-0.616-0.961-1.4-1.26-2.353s-0.448-2.1-0.448-3.443c0-1.214,0.154-2.292,0.462-3.234
		c0.309-0.942,0.742-1.736,1.303-2.38c0.56-0.645,1.227-1.134,2.002-1.47c0.774-0.336,1.619-0.505,2.534-0.505
		c0.896,0,1.726,0.136,2.491,0.406c0.766,0.271,1.429,0.71,1.988,1.316s0.998,1.391,1.316,2.352
		C421.772,126.623,421.932,127.794,421.932,129.176z M419.244,129.176c0-1.009-0.084-1.857-0.253-2.549
		c-0.168-0.689-0.405-1.245-0.714-1.666c-0.308-0.42-0.682-0.723-1.12-0.909s-0.938-0.28-1.497-0.28
		c-0.523,0-1.004,0.084-1.442,0.252s-0.817,0.462-1.134,0.882c-0.318,0.42-0.565,0.976-0.742,1.666
		c-0.178,0.691-0.266,1.559-0.266,2.604c0,1.026,0.074,1.885,0.224,2.575c0.149,0.691,0.373,1.246,0.672,1.666
		s0.667,0.719,1.106,0.896c0.438,0.178,0.938,0.266,1.498,0.266c0.56,0,1.068-0.088,1.525-0.266s0.845-0.477,1.162-0.896
		s0.56-0.975,0.728-1.666C419.16,131.061,419.244,130.202,419.244,129.176z"/>
	<path fill="#5A5A58" d="M433.579,121.728c0,0.43-0.023,0.868-0.069,1.315c-0.047,0.448-0.108,0.888-0.183,1.316
		c-0.149-0.037-0.336-0.074-0.56-0.112c-0.225-0.037-0.458-0.056-0.7-0.056c-0.504,0-1.013,0.084-1.526,0.252
		s-1.087,0.56-1.722,1.176v10.864h-2.492v-14.504c0.336-0.056,0.742-0.098,1.218-0.126c0.477-0.028,0.9-0.042,1.274-0.042v1.848
		h0.14c0.393-0.485,0.756-0.863,1.093-1.134c0.336-0.271,0.644-0.476,0.924-0.616c0.279-0.14,0.541-0.229,0.784-0.266
		c0.242-0.037,0.476-0.057,0.699-0.057c0.149,0,0.331,0.01,0.546,0.028S433.411,121.672,433.579,121.728z"/>
	<path fill="#5A5A58" d="M439.794,117.835c0,0.43-0.121,0.794-0.363,1.093c-0.243,0.299-0.616,0.447-1.12,0.447
		c-0.486,0-0.85-0.153-1.092-0.462c-0.243-0.308-0.364-0.667-0.364-1.078c0-0.429,0.121-0.802,0.364-1.119
		c0.242-0.317,0.615-0.477,1.119-0.477c0.485,0,0.85,0.159,1.093,0.477C439.673,117.033,439.794,117.406,439.794,117.835z
		 M437.078,136.483v-14.616h2.492v14.616H437.078z"/>
	<path fill="#5A5A58" d="M452.45,136.176c-0.374,0.187-0.821,0.331-1.344,0.434c-0.523,0.103-0.98,0.154-1.372,0.154
		c-1.513,0-2.6-0.383-3.263-1.148c-0.662-0.765-0.993-1.96-0.993-3.584v-7.979h-1.736v-2.185h1.736v-3.136
		c0.336-0.093,0.746-0.182,1.231-0.266s0.914-0.145,1.288-0.183v3.584h3.696c0,0.729-0.057,1.456-0.168,2.185h-3.528v8.176
		c0,0.878,0.149,1.461,0.448,1.75c0.298,0.289,0.802,0.434,1.512,0.434c0.336,0,0.704-0.042,1.106-0.126
		c0.4-0.084,0.741-0.191,1.021-0.321c0.094,0.317,0.168,0.672,0.225,1.063C452.366,135.419,452.412,135.802,452.45,136.176z"/>
	<path fill="#5A5A58" d="M462.054,136.035c-0.783,2.314-1.675,3.977-2.674,4.984s-2.133,1.512-3.401,1.512
		c-0.355,0-0.766-0.032-1.232-0.098s-0.915-0.21-1.344-0.435c0.037-0.41,0.103-0.821,0.195-1.231
		c0.094-0.411,0.196-0.775,0.309-1.092c0.298,0.13,0.648,0.232,1.05,0.308c0.401,0.074,0.788,0.112,1.162,0.112
		c0.541,0,1.003-0.146,1.386-0.435s0.724-0.761,1.022-1.414l0.756-1.764c-0.43-1.008-0.873-2.104-1.33-3.29
		c-0.458-1.186-0.905-2.408-1.344-3.668c-0.439-1.26-0.859-2.529-1.261-3.808s-0.761-2.524-1.077-3.738
		c0.354-0.056,0.765-0.103,1.231-0.14c0.467-0.038,0.877-0.057,1.232-0.057l3.275,10.332c0.094,0.262,0.183,0.551,0.267,0.868
		s0.153,0.606,0.21,0.868h0.111c0.057-0.299,0.122-0.603,0.196-0.91s0.158-0.593,0.252-0.854l3.332-10.304
		c0.336,0,0.742,0.015,1.218,0.042c0.477,0.028,0.892,0.08,1.246,0.154L462.054,136.035z"/>
</g>
<g id="Logo">
	<path fill="#11A14E" d="M228.605,92.744c-3.419,0-3.604-2.096-3.511-3.59c0.092-1.497,26.885-42.179,26.885-42.179l-18.847,3.19
		c0,0,0.092-3.49-9.423-3.49s-23.927,9.573-31.873,18.347c-7.945,8.775-12.749,18.647-12.656,21.239l-8.118,3.737
		c0,0-6.044,2.795-8.604,2.644c-2.491-0.147-3.696-0.996-3.696-3.091c0-2.093,8.868-14.059,11.179-17.648
		c2.31-3.589,11.55-14.359,11.457-19.344c-0.093-4.986-2.956-5.584-6.929-5.584c-3.973,0-10.625,1.395-14.875,4.188
		c-4.25,2.792-24.297,26.324-29.101,32.607c-4.804,6.281-5.82,7.677-7.761,8.973c0,0,7.021-10.37,9.239-13.66
		c2.217-3.291,20.879-31.809,20.879-31.809l-19.956,3.391c0,0-21.826,34.396-22.75,35.194c-0.923,0.797-9.584,5.688-13.002,6.387
		c-3.418,0.697-6.468-0.1-6.191-2.991c0.277-2.893,8.038-13.86,10.901-17.549c2.864-3.69,16.353-25.029,16.353-25.029l-18.57,3.291
		c0,0-3.048-3.091-9.237-3.19c-6.19-0.1-23.467,7.579-29.195,13.96c-5.728,6.381-15.336,18.148-15.891,24.429
		c0,0-12.012,7.631-16.329,7.734c-3.805,0.091-3.896-1.752-3.811-3.547c0.165-3.494,9.608-16.651,12.287-20.54
		c2.679-3.889,14.783-22.336,14.783-22.336c-3.049,1.396-14.32,8.575-21.157,6.282c0,0-20.766,29.695-22.265,33.903
		c-2,5.617,4.157,10.097,11.363,10.169c10.525,0.105,21.341-5.683,24.852-8.274c0,0,0,8.076,12.565,8.176
		c12.564,0.099,16.167-5.085,18.015-5.983c0,0,2.679,6.283,11.64,6.184c8.96-0.102,17.737-4.687,21.433-7.18
		c0,0-0.185,6.88,8.592,6.381c8.777-0.499,10.715-5.683,13.58-9.173c0,0,25.498-32.605,31.873-35.299
		c6.375-2.692,4.712-1.994,2.68,1.196c-2.032,3.191-22.081,27.422-22.265,36.096c-0.184,8.677,7.391,7.979,11.733,7.979
		c4.343,0,19.154-4.655,24.391-8.078c0,0,1.94,8.078,10.624,8.078s17.706-4.399,19.923-5.794c0,0,1.694,5.894,11.395,5.794
		c9.701-0.102,23.65-8.078,24.852-8.875l-0.739-1.596C245.326,86.461,232.024,92.744,228.605,92.744z M77.14,82.751
		c-1.011,1.588-1.919,3.107-1.919,5.074c0,0-6.428,5.281-10.265,5.281s-3.647-2.486-3.549-4.246
		c0.288-5.178,5.66-14.392,9.018-18.948c2.624-3.561,12.568-20.318,21.106-20.502c4.796-0.104,4.605,1.967,5.468,3.728
		C96.999,53.138,78.195,81.095,77.14,82.751z M211.435,82.716c-1.011,1.588-1.919,3.107-1.919,5.074c0,0-7.373,5.213-10.266,5.281
		c-3.835,0.091-3.646-2.486-3.548-4.246c0.288-5.178,5.66-14.392,9.017-18.948c2.624-3.561,12.569-20.318,21.107-20.502
		c4.796-0.104,4.605,1.968,5.468,3.728C231.294,53.103,212.49,81.06,211.435,82.716z"/>
	<path fill="#0673BA" d="M224.35,87.444c-3.419,0-3.603-2.096-3.511-3.59c0.092-1.497,26.885-42.179,26.885-42.179l-18.848,3.191
		c0,0,0.092-3.49-9.423-3.49s-23.927,9.573-31.873,18.347c-7.946,8.775-12.749,18.647-12.657,21.239l-8.118,3.737
		c0,0-6.044,2.795-8.604,2.644c-2.491-0.147-3.696-0.996-3.696-3.091c0-2.093,8.868-14.06,11.179-17.648
		c2.31-3.589,11.55-14.359,11.457-19.344c-0.093-4.986-2.956-5.584-6.929-5.584c-3.974,0-10.625,1.396-14.875,4.188
		S131.04,72.187,126.236,78.47c-4.804,6.281-5.82,7.677-7.761,8.973c0,0,7.021-10.37,9.239-13.659
		c2.217-3.292,20.879-31.81,20.879-31.81l-19.956,3.391c0,0-21.826,34.396-22.75,35.194c-0.923,0.797-9.585,5.688-13.003,6.387
		c-3.418,0.697-6.467-0.1-6.19-2.991c0.277-2.893,8.038-13.86,10.902-17.549c2.864-3.69,16.352-25.029,16.352-25.029l-18.569,3.291
		c0,0-3.048-3.091-9.239-3.19c-6.19-0.1-23.466,7.578-29.194,13.96c-5.728,6.381-15.336,18.148-15.891,24.429
		c0,0-12.012,7.631-16.329,7.734c-3.804,0.091-3.896-1.752-3.811-3.547c0.165-3.494,9.608-16.651,12.287-20.54
		c2.679-3.889,14.783-22.336,14.783-22.336c-3.049,1.396-14.32,8.575-21.156,6.282c0,0-20.766,29.695-22.265,33.903
		c-2,5.617,4.156,10.097,11.363,10.169c10.525,0.106,21.34-5.683,24.852-8.274c0,0,0,8.076,12.564,8.176
		c12.564,0.099,16.168-5.085,18.015-5.983c0,0,2.679,6.283,11.64,6.184c8.961-0.102,17.737-4.687,21.433-7.18
		c0,0-0.185,6.88,8.592,6.381c8.777-0.499,10.715-5.683,13.58-9.173c0,0,25.498-32.606,31.873-35.298
		c6.375-2.692,4.711-1.994,2.679,1.196c-2.032,3.191-22.081,27.422-22.265,36.095c-0.184,8.677,7.391,7.979,11.733,7.979
		c4.343,0,19.154-4.655,24.391-8.078c0,0,1.94,8.078,10.624,8.078s17.706-4.398,19.923-5.794c0,0,1.694,5.894,11.395,5.794
		c9.701-0.102,23.65-8.078,24.852-8.875l-0.738-1.596C241.071,81.161,227.769,87.444,224.35,87.444z M72.884,77.451
		c-1.011,1.588-1.919,3.107-1.919,5.074c0,0-6.428,5.281-10.265,5.281c-3.837,0-3.647-2.486-3.549-4.246
		c0.288-5.178,5.66-14.392,9.018-18.948c2.623-3.561,12.568-20.318,21.105-20.502c4.796-0.104,4.605,1.968,5.468,3.728
		C92.743,47.838,73.939,75.795,72.884,77.451z M207.18,77.416c-1.011,1.588-1.919,3.107-1.919,5.074c0,0-7.373,5.213-10.266,5.281
		c-3.835,0.091-3.646-2.486-3.548-4.246c0.288-5.178,5.66-14.392,9.017-18.948c2.624-3.561,12.569-20.318,21.106-20.502
		c4.796-0.104,4.605,1.968,5.468,3.728C227.039,47.803,208.235,75.76,207.18,77.416z"/>
	<linearGradient id="SVGID_1_" gradientUnits="userSpaceOnUse" x1="22.8809" y1="33.4346" x2="32.131" y2="20.416">
		<stop  offset="0" style="stop-color:#0673BA"/>
		<stop  offset="1" style="stop-color:#11A14E"/>
	</linearGradient>
	<path fill="url(#SVGID_1_)" d="M45.488,11.621l-10.384,6.473c1.936,6.463,5.017,12.606,8.801,18.646
		c-0.991,1.156-2.093,2.199-3.31,3.079c-3.908-5.849-7.061-12.436-8.983-19.548l-7.758,4.836c1.782,6.128,4.476,12.089,7.715,18.04
		c-0.447,0.035-0.893,0.074-1.348,0.074c-1.212,0-2.395-0.135-3.542-0.373c-2.643-4.809-4.811-10.046-6.281-15.586l-7.042,4.391
		c-0.586-1.34-1.047-2.754-1.349-4.237l7.397-4.522c-0.431-2.242-0.754-4.522-0.937-6.839l-6.713,4.299
		c0.186-1.476,0.52-2.898,0.985-4.254l5.559-3.325c-0.042-1.73-0.004-3.479,0.108-5.239c-4.191,3.693-6.87,9.31-6.87,15.605
		c0,11.122,8.353,20.139,18.659,20.139c10.306,0,18.659-9.017,18.659-20.139C48.854,18.852,47.604,14.886,45.488,11.621z"/>
	<linearGradient id="SVGID_2_" gradientUnits="userSpaceOnUse" x1="28.8999" y1="20.2856" x2="26.0762" y2="42.0789">
		<stop  offset="0" style="stop-color:#FFFFFF"/>
		<stop  offset="1" style="stop-color:#1173BA"/>
	</linearGradient>
	<path fill="url(#SVGID_2_)" d="M18.297,12.773l-5.559,3.325c-0.465,1.356-0.799,2.778-0.985,4.254l6.713-4.299
		c0.183,2.317,0.506,4.597,0.937,6.839l-7.397,4.522c0.302,1.483,0.763,2.897,1.349,4.237l7.042-4.391
		c1.471,5.54,3.638,10.777,6.281,15.586c1.148,0.238,2.33,0.373,3.542,0.373c0.455,0,0.901-0.039,1.348-0.074
		c-3.239-5.95-5.933-11.911-7.715-18.04l7.758-4.836c1.923,7.112,5.076,13.699,8.983,19.548c1.216-0.88,2.318-1.923,3.31-3.079
		c-3.784-6.04-6.865-12.183-8.801-18.646l10.384-6.473c-0.737-1.139-1.584-2.184-2.518-3.134l-8.935,5.462
		c-0.51-2.35-0.862-4.747-1.042-7.2l3.796-2.431c-0.916-0.375-1.858-0.694-2.836-0.91l-1.08,0.646
		c-0.005-0.273-0.003-0.549-0.003-0.825C31.993,3.094,31.105,3,30.195,3c-0.206,0-0.405,0.026-0.609,0.033
		c-0.03,1.005-0.04,2.006-0.021,3l-8.026,4.801c-0.055-1.841-0.012-3.705,0.13-5.595c-1.163,0.646-2.259,1.411-3.264,2.295
		C18.293,9.294,18.255,11.043,18.297,12.773z M29.689,8.866c0.167,2.434,0.475,4.829,0.93,7.171l-7.845,4.795
		c-0.487-2.258-0.846-4.543-1.053-6.863L29.689,8.866z"/>
	<linearGradient id="SVGID_3_" gradientUnits="userSpaceOnUse" x1="11.9814" y1="24.8271" x2="21.2109" y2="11.8376">
		<stop  offset="0" style="stop-color:#115DA6"/>
		<stop  offset="1" style="stop-color:#00A14F"/>
	</linearGradient>
	<path fill="url(#SVGID_3_)" d="M21.54,10.834l8.026-4.801c-0.019-0.994-0.009-1.995,0.021-3c-2.847,0.099-5.53,0.879-7.917,2.206
		C21.528,7.129,21.485,8.993,21.54,10.834z"/>
	<linearGradient id="SVGID_4_" gradientUnits="userSpaceOnUse" x1="16.1455" y1="27.6191" x2="25.2967" y2="14.7399">
		<stop  offset="0" style="stop-color:#115DA6"/>
		<stop  offset="1" style="stop-color:#00A14F"/>
	</linearGradient>
	<path fill="url(#SVGID_4_)" d="M33.953,3.409c-0.355-0.079-0.722-0.123-1.083-0.178c0,0.275-0.002,0.551,0.003,0.825L33.953,3.409z
		"/>
	<linearGradient id="SVGID_5_" gradientUnits="userSpaceOnUse" x1="20.8672" y1="31.7061" x2="30.1208" y2="18.6826">
		<stop  offset="0" style="stop-color:#115DA6"/>
		<stop  offset="1" style="stop-color:#00A14F"/>
	</linearGradient>
	<path fill="url(#SVGID_5_)" d="M34.035,13.949l8.935-5.462c-1.771-1.799-3.864-3.223-6.181-4.168L32.993,6.75
		C33.172,9.202,33.524,11.599,34.035,13.949z"/>
	<linearGradient id="SVGID_6_" gradientUnits="userSpaceOnUse" x1="16.54" y1="28.5547" x2="25.8647" y2="15.4312">
		<stop  offset="0" style="stop-color:#115DA6"/>
		<stop  offset="1" style="stop-color:#00A14F"/>
	</linearGradient>
	<path fill="url(#SVGID_6_)" d="M30.619,16.037c-0.456-2.343-0.764-4.737-0.93-7.171l-7.968,5.104
		c0.207,2.32,0.566,4.605,1.053,6.863L30.619,16.037z"/>
</g>
</svg>
